<svg xmlns="http://www.w3.org/2000/svg" viewBox="0 0 16 16"><path id="folder" fill="#d81b60" d="m6.922 3.768-.644-.536A1 1 0 0 0 5.638 3H2a1 1 0 0 0-1 1v8a1 1 0 0 0 1 1h12a1 1 0 0 0 1-1V5a1 1 0 0 0-1-1H7.562a1 1 0 0 1-.64-.232"/><path id="motive" fill="#f8bbd0" d="M15.862 10.719a2.33 2.33 0 0 1-.97 2.027l.396.765c.118.23.133.502.03.744a.9.9 0 0 1-.544.513l-.405.128a.87.87 0 0 1-.955-.282l-1.088-1.283a2.7 2.7 0 0 1-1.252-.565 2.7 2.7 0 0 1-.77.118c-.451 0-.903-.138-1.283-.405q-.408.122-.831.113a3 3 0 0 1-1.18-.231 2.11 2.11 0 0 1-1.248-1.853c-.04-.37.02-.744.18-1.083a1.77 1.77 0 0 1-.036-1.195c.19-.488.55-.893.996-1.15a2.04 2.04 0 0 1 2.053-1.386 2.36 2.36 0 0 1 2.992-.19q.325-.086.667-.087a2.23 2.23 0 0 1 1.796.842 2.47 2.47 0 0 1 1.837 2.294 2.7 2.7 0 0 1-.441 1.606q.055.276.056.56m-2.566-.724c.293.036.524.257.524.55a.513.513 0 0 1-.513.512h-.324a2.66 2.66 0 0 1-.831 1.176c.128.046.262.071.395.107 2.633-.036 2.325-1.642 2.325-1.668a1.33 1.33 0 0 0-1.38-1.277.513.513 0 0 1-.514-.514.513.513 0 0 1 .513-.513 2.7 2.7 0 0 1 1.71.667 3 3 0 0 0 .04-.456c-.03-.637-.318-1.191-1.473-1.299-.641-1.519-2.258-.677-2.258-.205-.015.118.108.37.129.385a.513.513 0 0 1 .513.513.515.515 0 0 1-.513.513 1.2 1.2 0 0 1-.734-.287 1.9 1.9 0 0 1-.821.287.49.49 0 0 1-.55-.462.497.497 0 0 1 .452-.564c.082-.01.483-.072.483-.395 0-.34.128-.662.349-.92-.473-.127-.98.042-1.494.663-.944-.149-1.33-.02-1.611.98-.488.241-.745.41-.857.924a3 3 0 0 1 1.652.128.515.515 0 0 1-.36.965 1.57 1.57 0 0 0-1.18-.03c-.164.138-.164.425-.164.651 0 .38.19.734.513.94.272.138.575.21.878.205a3 3 0 0 1-.2-.416.533.533 0 0 1 1.006-.35c.205.586.729.986 1.344 1.053a1.92 1.92 0 0 0 1.638-1.093c.118-.708.687-.77 1.313-.77m1.027 3.834-.318-.667-.365.082.513.641zM11.936 9.41a.513.513 0 0 0-.467-.529 1.37 1.37 0 0 0-.99.344 1.53 1.53 0 0 0-.431 1.124.513.513 0 0 0 .513.513c.292 0 .513-.23.513-.513a.66.66 0 0 1 .118-.39.34.34 0 0 1 .22-.077.484.484 0 0 0 .524-.472"/></svg>