<svg xmlns="http://www.w3.org/2000/svg" viewBox="0 0 16 16"><path fill="#d81b60" d="M14.483 8.96a3.1 3.1 0 0 1-1.294 2.702l.528 1.02c.158.307.178.67.04.992a1.2 1.2 0 0 1-.725.684l-.54.17a1.16 1.16 0 0 1-1.273-.375l-1.451-1.711a3.6 3.6 0 0 1-1.67-.753 3.6 3.6 0 0 1-1.026.157 3 3 0 0 1-1.71-.54q-.545.163-1.109.15a4 4 0 0 1-1.573-.307 2.81 2.81 0 0 1-1.664-2.471 2.7 2.7 0 0 1 .24-1.444 2.36 2.36 0 0 1-.048-1.593 3.07 3.07 0 0 1 1.328-1.534A2.72 2.72 0 0 1 5.273 2.26a3.15 3.15 0 0 1 3.99-.253q.433-.115.889-.116a2.97 2.97 0 0 1 2.395 1.123 3.29 3.29 0 0 1 2.449 3.058 3.6 3.6 0 0 1-.588 2.142q.073.368.075.746m-3.422-.965c.391.048.699.343.699.733a.684.684 0 0 1-.684.683h-.432a3.55 3.55 0 0 1-1.108 1.568c.17.061.35.095.527.143 3.51-.048 3.1-2.19 3.1-2.224a1.773 1.773 0 0 0-1.84-1.703.684.684 0 0 1-.686-.685.684.684 0 0 1 .684-.684 3.6 3.6 0 0 1 2.28.889 4 4 0 0 0 .054-.608c-.04-.85-.424-1.588-1.964-1.732-.855-2.025-3.011-.903-3.011-.273-.02.157.144.493.172.513a.684.684 0 0 1 .684.684.687.687 0 0 1-.684.684 1.6 1.6 0 0 1-.979-.383 2.5 2.5 0 0 1-1.094.383.653.653 0 0 1-.734-.616.663.663 0 0 1 .603-.752c.11-.013.644-.096.644-.527 0-.453.17-.882.465-1.226-.63-.17-1.306.056-1.992.884-1.258-.199-1.773-.027-2.148 1.306-.65.322-.993.547-1.142 1.232a4 4 0 0 1 2.202.171.687.687 0 0 1-.48 1.287 2.1 2.1 0 0 0-1.573-.04c-.219.184-.219.566-.219.868 0 .506.254.978.684 1.253.363.184.767.28 1.171.273a4 4 0 0 1-.267-.554.71.71 0 0 1 1.342-.467 2.12 2.12 0 0 0 1.792 1.404A2.56 2.56 0 0 0 9.31 9.021c.157-.944.916-1.027 1.75-1.027m1.37 5.112-.424-.89-.487.11.684.855zM9.248 7.214a.684.684 0 0 0-.623-.705 1.83 1.83 0 0 0-1.32.458 2.04 2.04 0 0 0-.574 1.499.684.684 0 0 0 .684.684.677.677 0 0 0 .684-.684.88.88 0 0 1 .157-.52.45.45 0 0 1 .293-.103.645.645 0 0 0 .699-.629"/></svg>